<?xml version="1.0" encoding="UTF-8"?>
<svg width="196px" height="193px" viewBox="0 0 196 193" version="1.1" xmlns="http://www.w3.org/2000/svg" xmlns:xlink="http://www.w3.org/1999/xlink">
    <!-- Generator: Sketch 49.3 (51167) - http://www.bohemiancoding.com/sketch -->
    <title>Group</title>
    <desc>Created with Sketch.</desc>
    <defs>
        <polygon id="path-1" points="0.7113 0.221 189.3293 0.221 189.3293 77.7244 0.7113 77.7244"></polygon>
        <path d="M78.105,0.001 L78.105,7.172 C78.105,11.764 74.298,15.486 69.6,15.486 C64.902,15.486 61.095,11.764 61.095,7.172 L61.095,0.001 L35.571,0.001 L35.571,7.172 C35.571,11.764 31.765,15.486 27.067,15.486 C22.368,15.486 18.558,11.764 18.558,7.172 L18.558,0.001 L10.903,0.001 C5.265,0.001 0.693,4.464 0.693,9.975 L0.693,73.962 C0.693,79.468 5.265,83.936 10.903,83.936 L84.912,83.936 C90.551,83.936 95.12,79.468 95.12,73.962 L95.12,9.975 C95.12,4.464 90.551,0.001 84.912,0.001 L78.105,0.001 Z M10.903,73.962 L84.912,73.962 L84.912,20.908 L10.903,20.908 L10.903,73.962 Z" id="path-3"></path>
        <path d="M0.678,5.197 L0.678,16.908 C0.678,19.464 3.027,21.545 5.924,21.545 C8.822,21.545 11.172,19.464 11.172,16.908 L11.172,5.197 C11.172,2.633 8.822,0.56 5.924,0.56 C3.027,0.56 0.678,2.633 0.678,5.197 Z" id="path-5"></path>
        <path d="M0.694,5.197 L0.694,16.908 C0.694,19.464 3.044,21.545 5.942,21.545 C8.835,21.545 11.19,19.464 11.19,16.908 L11.19,5.197 C11.19,2.633 8.835,0.56 5.942,0.56 C3.044,0.56 0.694,2.633 0.694,5.197 Z" id="path-7"></path>
    </defs>
    <g id="Page-1" stroke="none" stroke-width="1" fill="none" fill-rule="evenodd">
        <g id="Group" transform="translate(0.000000, -1.000000)">
            <g id="Page-1">
                <g id="Group-6" transform="translate(2.000000, 0.779000)">
                    <g id="Group-3">
                        <mask id="mask-2" fill="white">
                            <use xlink:href="#path-1"></use>
                        </mask>
                        <g id="Clip-2"></g>
                        <path d="M177.3003,75.5654 C169.0663,36.5874 134.9223,11.7034 95.0193,11.7034 C55.1153,11.7034 20.4543,38.7464 12.2213,77.7244 L0.7113,77.7244 C5.2093,56.4284 17.0073,35.9294 33.9293,22.0484 C51.0913,7.9724 72.7853,0.2204 95.0193,0.2204 C117.2513,0.2204 138.9463,7.9724 156.1083,22.0484 C173.0323,35.9294 184.8303,55.3024 189.3293,76.5984 L177.3003,75.5654 Z" id="Fill-1" fill="#FEFEFE" mask="url(#mask-2)"></path>
                    </g>
                    <path d="M95.019,193 C67.784,193 41.692,181.395 23.435,161.16 C12.917,149.503 5.344,135.334 1.535,120.186 L14.422,120.119 C17.775,133.454 22.694,143.199 31.96,153.469 C48.044,171.294 71.028,181.518 95.019,181.518 C134.011,181.518 167.509,156.545 177.005,118.785 L189.195,118.785 C178.415,161.656 139.282,193 95.019,193" id="Fill-4" fill="#FEFEFE"></path>
                </g>
                <g id="Group-9" transform="translate(51.000000, 58.779000)">
                    <mask id="mask-4" fill="white">
                        <use xlink:href="#path-3"></use>
                    </mask>
                    <g id="Clip-8"></g>
                    <polygon id="Fill-7" fill="#FEFEFE" mask="url(#mask-4)" points="-28.012 112.641 123.826 112.641 123.826 -28.704 -28.012 -28.704"></polygon>
                </g>
                <g id="Group-22" transform="translate(56.000000, 76.779000)" stroke="#FEFEFE" stroke-width="5.741">
                    <path d="M28.9175,0.8896 L28.9175,58.1196" id="Stroke-10"></path>
                    <path d="M56.897,0.8896 L56.897,58.1196" id="Stroke-12"></path>
                    <path d="M83.3203,19.772 L0.9413,19.772" id="Stroke-14"></path>
                    <path d="M83.3203,38.6548 L0.9413,38.6548" id="Stroke-16"></path>
                    <path d="M83.3203,57.543 L0.9413,57.543" id="Stroke-18"></path>
                    <path d="M83.3203,0.8896 L0.9413,0.8896" id="Stroke-20"></path>
                </g>
                <g id="Group-25" transform="translate(72.000000, 48.779000)">
                    <mask id="mask-6" fill="white">
                        <use xlink:href="#path-5"></use>
                    </mask>
                    <g id="Clip-24"></g>
                    <polygon id="Fill-23" fill="#FEFEFE" mask="url(#mask-6)" points="-28.027 50.25 39.876 50.25 39.876 -28.146 -28.027 -28.146"></polygon>
                </g>
                <g id="Group-28" transform="translate(115.000000, 48.779000)">
                    <mask id="mask-8" fill="white">
                        <use xlink:href="#path-7"></use>
                    </mask>
                    <g id="Clip-27"></g>
                    <polygon id="Fill-26" fill="#FEFEFE" mask="url(#mask-8)" points="-28.011 50.25 39.895 50.25 39.895 -28.146 -28.011 -28.146"></polygon>
                </g>
                <polygon id="Fill-29" fill="#FEFEFE" points="153.6731 78.5034 195.2171 78.5034 195.2171 40.7334"></polygon>
                <polygon id="Fill-30" fill="#FEFEFE" points="0.7055 119.2968 0.7055 157.0678 42.2525 119.2968"></polygon>
            </g>
        </g>
    </g>
</svg>